<svg width="2009" height="1282" viewBox="0 0 2009 1282" fill="none" xmlns="http://www.w3.org/2000/svg">
<path d="M1663 700V639L1602 631.5L1372.5 625.5L1079 636V729L1092.5 820.5L28.5 816.5L1.5 1H1970L2008 816.5L1898.75 819L1847.5 816.5L1789.5 821.5L1803 800.5L1809.5 770.5L1806 736L1772.5 696.5L1725 682L1663 700Z" fill="black"/>
<path d="M42.5 816.5L1092.5 820.5M1092.5 820.5L28.5 816.5L1.5 1H1970L2008 816.5L1898.75 819L1847.5 816.5L1789.5 821.5L1803 800.5L1809.5 770.5L1806 736L1772.5 696.5L1725 682L1663 700V639L1602 631.5L1372.5 625.5L1079 636V729L1092.5 820.5Z" stroke="black"/>
<path d="M1703 719.5C1681.77 729.821 1673.65 742.231 1665.5 775.5V778C1649.18 782.06 1645.5 791.801 1645 817.5L1629 856L1634 860C1683.66 855.93 1710.32 846.736 1742 821.5C1767.54 810.27 1774.31 798.1 1777.5 769.5C1780.27 750.537 1775.76 741.168 1758 726.5C1739.65 712.186 1727.42 711.364 1703 719.5Z" fill="black" stroke="black"/>
</svg>
